<?xml version="1.0" encoding="UTF-8" standalone="no"?>
<!-- Created with Inkscape (http://www.inkscape.org/) -->

<svg
   xmlns:dc="http://purl.org/dc/elements/1.1/"
   xmlns:cc="http://creativecommons.org/ns#"
   xmlns:rdf="http://www.w3.org/1999/02/22-rdf-syntax-ns#"
   xmlns:svg="http://www.w3.org/2000/svg"
   xmlns="http://www.w3.org/2000/svg"
   xmlns:sodipodi="http://sodipodi.sourceforge.net/DTD/sodipodi-0.dtd"
   xmlns:inkscape="http://www.inkscape.org/namespaces/inkscape"
   width="350"
   height="150"
   viewBox="0 0 92.604164 39.687501"
   version="1.1"
   id="svg8"
   inkscape:version="0.92.4 5da689c313, 2019-01-14"
   sodipodi:docname="forgefed-logo-v2.svg"
   inkscape:export-filename="/home/iko/Downloads/forgefed-logo-v2-wordmark.png"
   inkscape:export-xdpi="96"
   inkscape:export-ydpi="96">
  <defs
     id="defs2" />
  <sodipodi:namedview
     id="base"
     pagecolor="#ffffff"
     bordercolor="#666666"
     borderopacity="1.0"
     inkscape:pageopacity="0"
     inkscape:pageshadow="2"
     inkscape:zoom="3.830461"
     inkscape:cx="114.40171"
     inkscape:cy="44.029739"
     inkscape:document-units="px"
     inkscape:current-layer="layer1"
     showgrid="true"
     units="px"
     inkscape:showpageshadow="false"
     borderlayer="true"
     inkscape:window-width="1362"
     inkscape:window-height="728"
     inkscape:window-x="0"
     inkscape:window-y="38"
     inkscape:window-maximized="0"
     inkscape:snap-bbox="true"
     inkscape:bbox-nodes="true"
     inkscape:snap-grids="true"
     inkscape:snap-smooth-nodes="false"
     inkscape:snap-intersection-paths="false"
     inkscape:snap-bbox-edge-midpoints="false"
     inkscape:object-paths="true"
     inkscape:snap-global="true"
     inkscape:snap-bbox-midpoints="false"
     inkscape:bbox-paths="false"
     inkscape:object-nodes="true"
     inkscape:snap-nodes="true"
     inkscape:snap-object-midpoints="true"
     inkscape:snap-others="false">
    <inkscape:grid
       type="xygrid"
       id="grid815"
       spacingx="1.3229167"
       spacingy="1.3229167"
       empspacing="10" />
  </sodipodi:namedview>
  <metadata
     id="metadata5">
    <rdf:RDF>
      <cc:Work
         rdf:about="">
        <dc:format>image/svg+xml</dc:format>
        <dc:type
           rdf:resource="http://purl.org/dc/dcmitype/StillImage" />
        <dc:title></dc:title>
        <cc:license
           rdf:resource="http://creativecommons.org/publicdomain/zero/1.0/" />
      </cc:Work>
      <cc:License
         rdf:about="http://creativecommons.org/publicdomain/zero/1.0/">
        <cc:permits
           rdf:resource="http://creativecommons.org/ns#Reproduction" />
        <cc:permits
           rdf:resource="http://creativecommons.org/ns#Distribution" />
        <cc:permits
           rdf:resource="http://creativecommons.org/ns#DerivativeWorks" />
      </cc:License>
    </rdf:RDF>
  </metadata>
  <g
     inkscape:label="logo"
     inkscape:groupmode="layer"
     id="layer1"
     transform="translate(0,-257.3125)">
    <g
       aria-label="ForgeFed"
       style="font-style:normal;font-weight:normal;font-size:10.58333302px;line-height:1.25;font-family:sans-serif;letter-spacing:0px;word-spacing:0px;fill:#000000;fill-opacity:1;stroke:none;stroke-width:0.26458332"
       id="text5889"
       transform="translate(-13.766601,344.33732)">
      <path
         d="m 46.839518,-62.695545 h -1.860351 v -10.07346 h 4.513075 v 1.619195 h -2.652724 v 2.797418 h 2.473579 v 1.619195 h -2.473579 z"
         style="font-style:normal;font-variant:normal;font-weight:normal;font-stretch:normal;font-size:14.11111164px;font-family:'Open Sans Condensed';-inkscape-font-specification:'Open Sans Condensed, ';fill:#808080;stroke-width:0.26458332"
         id="path5965"
         inkscape:connector-curvature="0" />
      <path
         d="m 56.341092,-66.547162 q 0,1.887912 -0.799262,2.942112 -0.799262,1.047309 -2.191081,1.047309 -0.881944,0 -1.557183,-0.482314 -0.675239,-0.482313 -1.040419,-1.384928 -0.36518,-0.909505 -0.36518,-2.122179 0,-1.867242 0.792372,-2.914551 0.792372,-1.054199 2.197971,-1.054199 1.357368,0 2.15663,1.07487 0.806152,1.067979 0.806152,2.89388 z m -4.078993,0 q 0,1.198893 0.261827,1.81212 0.261827,0.613227 0.840604,0.613227 1.10243,0 1.10243,-2.425347 0,-1.205784 -0.268717,-1.79834 -0.261828,-0.599447 -0.833713,-0.599447 -0.578777,0 -0.840604,0.599447 -0.261827,0.592556 -0.261827,1.79834 z"
         style="font-style:normal;font-variant:normal;font-weight:normal;font-stretch:normal;font-size:14.11111164px;font-family:'Open Sans Condensed';-inkscape-font-specification:'Open Sans Condensed, ';fill:#808080;stroke-width:0.26458332"
         id="path5967"
         inkscape:connector-curvature="0" />
      <path
         d="m 60.902399,-70.515912 q 0.337619,0 0.661458,0.103353 l -0.213596,1.777669 q -0.192925,-0.0689 -0.502984,-0.0689 -0.668348,0 -1.026638,0.530545 -0.35829,0.523654 -0.35829,1.529622 v 3.94808 h -1.832791 v -7.675673 h 1.508952 l 0.206706,1.198893 h 0.06201 q 0.303169,-0.72347 0.661459,-1.033529 0.35829,-0.310058 0.833713,-0.310058 z"
         style="font-style:normal;font-variant:normal;font-weight:normal;font-stretch:normal;font-size:14.11111164px;font-family:'Open Sans Condensed';-inkscape-font-specification:'Open Sans Condensed, ';fill:#808080;stroke-width:0.26458332"
         id="path5969"
         inkscape:connector-curvature="0" />
      <path
         d="m 67.923503,-70.357438 v 1.07487 l -0.916395,0.206706 q 0.268718,0.482313 0.268718,1.212673 0,1.219564 -0.661459,1.908583 -0.661458,0.689019 -1.846571,0.689019 -0.34451,0 -0.509874,-0.05512 -0.130914,0.117133 -0.248047,0.261827 -0.117133,0.144694 -0.117133,0.35829 0,0.482314 0.833713,0.482314 h 1.109321 q 0.978407,0 1.502061,0.530544 0.530545,0.523655 0.530545,1.584744 0,1.336697 -0.895725,2.067058 -0.895725,0.73036 -2.576931,0.73036 -1.274686,0 -1.963705,-0.558106 -0.689019,-0.551215 -0.689019,-1.577853 0,-0.640788 0.392741,-1.129992 0.392741,-0.482313 1.08865,-0.702799 -0.3514,-0.137804 -0.578776,-0.427192 -0.220486,-0.289388 -0.220486,-0.675239 0,-0.234266 0.0689,-0.420302 0.0689,-0.192925 0.192925,-0.358289 0.130914,-0.172255 0.523655,-0.502984 -0.475424,-0.289388 -0.751031,-0.888835 -0.275608,-0.599447 -0.275608,-1.329807 0,-1.260905 0.661459,-1.949924 0.661458,-0.689019 1.894802,-0.689019 0.234267,0 0.537435,0.05512 0.303168,0.04823 0.461643,0.103353 z m -4.513075,8.778104 q 0,0.454752 0.282498,0.695909 0.289388,0.248047 0.819933,0.248047 0.833713,0 1.247124,-0.316949 0.420302,-0.316949 0.420302,-0.868164 0,-0.434082 -0.227376,-0.613227 -0.220486,-0.179145 -0.833713,-0.179145 h -0.888835 q -0.37207,0 -0.599447,0.275608 -0.220486,0.282498 -0.220486,0.757921 z m 0.564996,-6.283855 q 0,1.357368 0.764811,1.357368 0.744141,0 0.744141,-1.371148 0,-1.405599 -0.744141,-1.405599 -0.764811,0 -0.764811,1.419379 z"
         style="font-style:normal;font-variant:normal;font-weight:normal;font-stretch:normal;font-size:14.11111164px;font-family:'Open Sans Condensed';-inkscape-font-specification:'Open Sans Condensed, ';fill:#808080;stroke-width:0.26458332"
         id="path5971"
         inkscape:connector-curvature="0" />
      <path
         d="m 71.678659,-62.557741 q -1.44005,0 -2.273763,-1.019749 -0.826823,-1.026638 -0.826823,-2.90077 0,-1.901693 0.751031,-2.969673 0.751031,-1.067979 2.094618,-1.067979 1.254015,0 1.977485,0.916395 0.72347,0.909505 0.72347,2.556261 v 0.978407 h -3.686252 q 0.02067,1.026639 0.420302,1.529623 0.399631,0.496094 1.10243,0.496094 0.895725,0 1.832791,-0.558106 v 1.508952 q -0.881944,0.530545 -2.115289,0.530545 z m -0.268717,-6.545682 q -0.392741,0 -0.647678,0.420302 -0.254937,0.413411 -0.296278,1.288465 h 1.860351 q -0.01378,-0.840603 -0.254937,-1.274685 -0.241156,-0.434082 -0.661458,-0.434082 z"
         style="font-style:normal;font-variant:normal;font-weight:normal;font-stretch:normal;font-size:14.11111164px;font-family:'Open Sans Condensed';-inkscape-font-specification:'Open Sans Condensed, ';fill:#808080;stroke-width:0.26458332"
         id="path5973"
         inkscape:connector-curvature="0" />
      <path
         d="m 77.321725,-62.695545 h -1.860352 v -10.07346 h 4.513075 v 1.619195 h -2.652723 v 2.797418 h 2.473578 v 1.619195 h -2.473578 z"
         style="fill:#ff851b;fill-opacity:1"
         id="path5975"
         inkscape:connector-curvature="0" />
      <path
         d="m 83.970758,-62.557741 q -1.44005,0 -2.273763,-1.019749 -0.826823,-1.026638 -0.826823,-2.90077 0,-1.901693 0.751031,-2.969673 0.751031,-1.067979 2.094618,-1.067979 1.254015,0 1.977485,0.916395 0.72347,0.909505 0.72347,2.556261 v 0.978407 h -3.686252 q 0.02067,1.026639 0.420302,1.529623 0.399631,0.496094 1.10243,0.496094 0.895725,0 1.832791,-0.558106 v 1.508952 q -0.881944,0.530545 -2.115289,0.530545 z m -0.268717,-6.545682 q -0.392741,0 -0.647678,0.420302 -0.254937,0.413411 -0.296278,1.288465 h 1.860351 q -0.01378,-0.840603 -0.254937,-1.274685 -0.241156,-0.434082 -0.661458,-0.434082 z"
         style="fill:#ff851b;fill-opacity:1"
         id="path5977"
         inkscape:connector-curvature="0" />
      <path
         d="m 89.662057,-62.557741 q -1.06109,0 -1.674317,-1.047309 -0.613227,-1.04731 -0.613227,-2.914551 0,-1.874132 0.599447,-2.935222 0.599447,-1.061089 1.653646,-1.061089 0.523654,0 0.902615,0.261827 0.385851,0.254937 0.70969,0.868164 h 0.110243 q -0.08268,-1.047309 -0.08268,-1.467611 v -2.563151 h 1.832791 v 10.721138 h -1.364258 l -0.310058,-0.999078 h -0.06201 q -0.585666,1.136882 -1.701877,1.136882 z m 0.592556,-1.550293 q 0.509875,0 0.744141,-0.461643 0.234267,-0.468533 0.254937,-1.694987 v -0.241157 q 0,-1.336697 -0.241157,-1.881022 -0.234266,-0.544325 -0.778591,-0.544325 -0.509874,0 -0.744141,0.627007 -0.227376,0.620117 -0.227376,1.81212 0,1.192004 0.234266,1.79145 0.234267,0.592557 0.757921,0.592557 z"
         style="fill:#ff851b;fill-opacity:1"
         id="path5979"
         inkscape:connector-curvature="0" />
    </g>
    <path
       inkscape:connector-curvature="0"
       id="path1575"
       d="m 13.229167,283.77083 6.614583,-6.61458 v 6.61458 z"
       style="opacity:1;fill:#ff851b;fill-opacity:1;stroke:none;stroke-width:0.49999997;stroke-linejoin:bevel;stroke-miterlimit:4;stroke-dasharray:none;stroke-dashoffset:0;stroke-opacity:1" />
    <path
       style="opacity:1;fill:#ff851b;fill-opacity:1;stroke:none;stroke-width:0.49999997;stroke-linejoin:bevel;stroke-miterlimit:4;stroke-dasharray:none;stroke-dashoffset:0;stroke-opacity:1"
       d="m 26.458334,283.77083 -6.614583,-6.61458 v 6.61458 z"
       id="path1577"
       inkscape:connector-curvature="0" />
    <path
       style="opacity:1;fill:#808080;fill-opacity:1;stroke:none;stroke-width:0.49999997;stroke-linejoin:bevel;stroke-miterlimit:4;stroke-dasharray:none;stroke-dashoffset:0;stroke-opacity:1"
       d="m 19.843751,277.15625 6.614583,6.61458 v -6.61458 z"
       id="path1573"
       inkscape:connector-curvature="0" />
    <path
       inkscape:connector-curvature="0"
       id="path1571"
       d="m 19.84375,277.15625 -6.614583,6.61458 v -6.61458 z"
       style="opacity:1;fill:#c8c8c8;fill-opacity:1;stroke:none;stroke-width:0.49999997;stroke-linejoin:bevel;stroke-miterlimit:4;stroke-dasharray:none;stroke-dashoffset:0;stroke-opacity:1" />
    <path
       style="opacity:1;fill:#808080;fill-opacity:1;stroke:none;stroke-width:0.49999997;stroke-linejoin:bevel;stroke-miterlimit:4;stroke-dasharray:none;stroke-dashoffset:0;stroke-opacity:1"
       d="m 13.229168,277.15624 6.614583,-6.61458 v 6.61458 z"
       id="path1550-1"
       inkscape:connector-curvature="0" />
    <path
       inkscape:connector-curvature="0"
       id="path1569"
       d="m 26.458334,277.15624 -6.614583,-6.61458 v 6.61458 z"
       style="opacity:1;fill:#c8c8c8;fill-opacity:1;stroke:none;stroke-width:0.49999997;stroke-linejoin:bevel;stroke-miterlimit:4;stroke-dasharray:none;stroke-dashoffset:0;stroke-opacity:1" />
    <path
       inkscape:connector-curvature="0"
       style="opacity:1;fill:#ffffff;fill-opacity:1;stroke:none;stroke-width:0.41092268;stroke-linejoin:bevel;stroke-miterlimit:4;stroke-dasharray:none;stroke-dashoffset:0;stroke-opacity:1"
       d="m 19.298323,275.15994 v 7.28981 l -2.66507,-2.56051 v 1.3229 l 2.66507,2.55869 h 1.090858 v -3.08797 l 2.580794,-2.5808 v -1.32289 l -2.580794,2.58079 v -4.20002 z"
       id="path1090-4-9" />
    <ellipse
       style="opacity:1;fill:#ffffff;fill-opacity:1;stroke:none;stroke-width:0.16666657;stroke-linejoin:bevel;stroke-miterlimit:4;stroke-dasharray:none;stroke-dashoffset:0;stroke-opacity:1"
       id="path828-9-41-1"
       cx="23.209055"
       cy="277.15628"
       rx="1.322916"
       ry="1.3229165" />
    <ellipse
       style="opacity:1;fill:#ffffff;fill-opacity:1;stroke:none;stroke-width:0.16666657;stroke-linejoin:bevel;stroke-miterlimit:4;stroke-dasharray:none;stroke-dashoffset:0;stroke-opacity:1"
       id="path828-9-4-0-8"
       cx="19.855425"
       cy="274.36502"
       rx="1.322916"
       ry="1.3229165" />
    <ellipse
       style="opacity:1;fill:#ffffff;fill-opacity:1;stroke:none;stroke-width:0.16666657;stroke-linejoin:bevel;stroke-miterlimit:4;stroke-dasharray:none;stroke-dashoffset:0;stroke-opacity:1"
       id="path828-9-8-0-3"
       cx="-16.536455"
       cy="280.46356"
       rx="1.322916"
       ry="1.3229165"
       transform="scale(-1,1)" />
  </g>
</svg>
