<?xml version="1.0" encoding="UTF-8"?>
<svg version="1.1" width="350" height="150" xmlns="http://www.w3.org/2000/svg" xmlns:cc="http://creativecommons.org/ns#" xmlns:dc="http://purl.org/dc/elements/1.1/" xmlns:rdf="http://www.w3.org/1999/02/22-rdf-syntax-ns#">
	<defs>
		<clipPath id="rect">
			<rect width="512" height="512"/>
		</clipPath>
	</defs>
	<metadata>
		<rdf:RDF>
			<cc:Work rdf:about="ForgeFed logo">
				<dc:format>image/svg+xml</dc:format>
				<dc:type rdf:resource="http://purl.org/dc/dcmitype/StillImage"/>
				<cc:license rdf:resource="http://creativecommons.org/publicdomain/zero/1.0/"/>
			</cc:Work>
			<cc:License rdf:about="http://creativecommons.org/publicdomain/zero/1.0/">
				<cc:permits rdf:resource="http://creativecommons.org/ns#Reproduction"/>
				<cc:permits rdf:resource="http://creativecommons.org/ns#Distribution"/>
				<cc:permits rdf:resource="http://creativecommons.org/ns#DerivativeWorks"/>
			</cc:License>
		</rdf:RDF>
	</metadata>
	<g clip-path="url(#rect)" transform="matrix(.09765,0,0,.09765,50,50)">
		<path d="m256 256-256 256h512z" fill="#ff851b"/>
		<path d="m256 256-256 256v-256z" fill="#c8c8c8"/>
		<path d="m256 256h256l-256-256z" fill="#c8c8c8"/>
		<path d="m256 256 256 256v-256z" fill="#808080"/>
		<path d="m256 256h-256l256-256z" fill="#808080"/>
		<g fill="#fff">
			<circle cx="386.25" cy="256" r="51.2"/>
			<circle cx="256.45" cy="148" r="51.2"/>
			<circle cx="128" cy="384" r="51.2"/>
		</g>
		<g stroke="#fff">
			<path stroke-width="36.2" d="M 388,256 256,388"/>
			<path stroke-width="42" d="M 256,170 V 512"/>
			<path stroke-width="36.9" d="M 128,384 256,506.65"/>
		</g>
	</g>
    <g aria-label="ForgeFed">
        <path fill="gray" d="M125 91.952h-7.03V53.88h17.057V60H125v10.572h9.349v6.12H125zm35.911-14.557q0 7.136-3.02 11.12-3.022 3.958-8.282 3.958-3.333 0-5.886-1.823t-3.932-5.234q-1.38-3.437-1.38-8.02 0-7.058 2.995-11.016 2.995-3.985 8.307-3.985 5.13 0 8.151 4.063 3.047 4.036 3.047 10.937m-15.417 0q0 4.531.99 6.85.99 2.317 3.177 2.317 4.167 0 4.167-9.167 0-4.557-1.016-6.797-.99-2.265-3.151-2.265-2.188 0-3.177 2.265-.99 2.24-.99 6.797m32.657-15q1.276 0 2.5.39l-.808 6.72q-.729-.26-1.9-.26-2.527 0-3.881 2.004-1.354 1.98-1.354 5.782v14.921h-6.927v-29.01h5.703l.781 4.531h.235q1.145-2.734 2.5-3.906t3.15-1.172m26.536.6v4.062l-3.464.78q1.016 1.824 1.016 4.584 0 4.61-2.5 7.214t-6.98 2.604q-1.301 0-1.926-.208-.495.442-.938.99-.442.546-.442 1.353 0 1.823 3.15 1.823h4.193q3.698 0 5.677 2.006 2.006 1.979 2.006 5.99 0 5.051-3.386 7.812-3.385 2.76-9.74 2.76-4.817 0-7.421-2.11-2.604-2.083-2.604-5.963 0-2.422 1.484-4.27 1.484-1.824 4.114-2.657-1.328-.52-2.187-1.615-.833-1.093-.833-2.552 0-.885.26-1.588.26-.73.73-1.354.494-.651 1.978-1.901-1.796-1.094-2.838-3.36t-1.042-5.026q0-4.765 2.5-7.37 2.5-2.604 7.162-2.604.885 0 2.03.209 1.147.182 1.746.39zM187.63 96.17q0 1.719 1.067 2.63 1.094.938 3.1.938 3.15 0 4.713-1.198 1.588-1.198 1.588-3.281 0-1.64-.859-2.318-.833-.677-3.151-.677h-3.36q-1.406 0-2.265 1.042-.833 1.067-.833 2.864m2.135-23.75q0 5.13 2.89 5.13 2.813 0 2.813-5.182 0-5.312-2.812-5.312-2.891 0-2.891 5.364m29.115 20.052q-5.443 0-8.594-3.854-3.125-3.88-3.125-10.963 0-7.188 2.838-11.224t7.917-4.037q4.74 0 7.474 3.464 2.734 3.437 2.734 9.661v3.698h-13.932q.078 3.88 1.589 5.781 1.51 1.875 4.166 1.875 3.386 0 6.927-2.109v5.703q-3.333 2.005-7.994 2.005m-1.016-24.74q-1.484 0-2.448 1.59-.963 1.562-1.12 4.87h7.032q-.053-3.178-.964-4.819-.911-1.64-2.5-1.64"/>
        <path fill="#ff851b" d="M240.208 91.952h-7.031V53.88h17.057V60h-10.026v10.572h9.35v6.12h-9.35zm25.13.521q-5.442 0-8.593-3.854-3.125-3.88-3.125-10.963 0-7.188 2.839-11.224t7.916-4.037q4.74 0 7.474 3.464 2.735 3.437 2.735 9.661v3.698H260.65q.078 3.88 1.589 5.781 1.51 1.875 4.166 1.875 3.386 0 6.928-2.109v5.703q-3.334 2.005-7.995 2.005m-1.015-24.74q-1.484 0-2.448 1.59-.963 1.562-1.12 4.87h7.032q-.052-3.178-.964-4.819-.911-1.64-2.5-1.64m22.526 24.74q-4.01 0-6.328-3.958t-2.318-11.016q0-7.083 2.266-11.093t6.25-4.01q1.979 0 3.411.989 1.459.963 2.683 3.281h.416q-.312-3.958-.312-5.547v-9.687h6.927v40.52h-5.156l-1.172-3.776h-.235q-2.213 4.297-6.432 4.297m2.24-5.859q1.927 0 2.812-1.745.886-1.77.964-6.406v-.912q0-5.052-.912-7.109-.885-2.057-2.942-2.057-1.928 0-2.813 2.37-.86 2.343-.86 6.849 0 4.505.886 6.77.885 2.24 2.865 2.24"/>
    </g>
</svg>
