<svg version="1.1" xmlns="http://www.w3.org/2000/svg" viewBox="0 0 956.5 530.7272727272727" width="956.5" height="530.7272727272727" filter="invert(93%) hue-rotate(180deg)">
  <!-- svg-source:excalidraw -->
  
  <defs>
    <style>
      @font-face {
        font-family: "Virgil";
        src: url("https://excalidraw.com/Virgil.woff2");
      }
      @font-face {
        font-family: "Cascadia";
        src: url("https://excalidraw.com/Cascadia.woff2");
      }
    </style>
  </defs>
  <rect x="0" y="0" width="956.5" height="530.7272727272727" fill="#ffffff"></rect><g stroke-linecap="round" transform="translate(341.5 10) rotate(0 138.5 69.5)"><path d="M0.96 0.53 C72.16 -0.34, 143.86 0.9, 277.89 0.11 M0.62 0.28 C63.1 2.53, 125.17 2.33, 276.53 -0.35 M276.39 -0.68 C277.19 29.8, 278.47 58.65, 276.5 139.49 M277.97 -0.49 C277.5 38, 278.14 75.92, 276.26 138.3 M278.02 138.57 C210.19 138.23, 146.24 137.32, 0.63 139.75 M276.86 139.31 C177.93 138.43, 77.82 137.62, -0.09 139.1 M0.6 138.38 C-0.37 107.95, 0 76.93, -0.69 1.12 M-0.35 138.87 C-1.21 98.08, -0.13 57.95, 0.48 -0.05" stroke="#000000" stroke-width="1" fill="none"></path></g><g transform="translate(346.5 67.5) rotate(0 133.5 12)"><text x="133.5" y="17" font-family="Virgil, Segoe UI Emoji" font-size="20px" fill="#000000" text-anchor="middle" style="white-space: pre;" direction="ltr">Employees</text></g><g stroke-linecap="round" transform="translate(10 272.5) rotate(0 99 48)"><path d="M-0.52 -1.35 C73.85 -1.35, 146.01 -2.28, 198.93 -1.42 M-0.6 0.48 C66.98 -1.83, 133.81 -0.54, 198.67 -0.06 M199.35 1.08 C199.26 38.5, 200.51 72.02, 198.04 94.58 M198.74 -0.6 C198.4 22.39, 199.03 44.93, 197.91 95.51 M198.65 94.88 C141.34 99.24, 81.96 96.61, -1.28 95.54 M197.47 95.31 C152.06 95.75, 105.82 96.14, 0.93 95.02 M1.5 95.14 C-0.88 58.79, 1.18 20.88, 1.05 0.73 M-0.19 96.85 C-0.76 58.03, -0.88 21.66, -0.34 0.34" stroke="#000000" stroke-width="1" fill="none"></path></g><g transform="translate(15 308.5) rotate(0 94 12)"><text x="94" y="17" font-family="Virgil, Segoe UI Emoji" font-size="20px" fill="#000000" text-anchor="middle" style="white-space: pre;" direction="ltr">Design Team</text></g><g stroke-linecap="round" transform="translate(255.5 275) rotate(0 99 48)"><path d="M1.09 -1.36 C57.96 0.71, 116.39 -0.97, 198.72 -0.97 M-0.97 0.67 C77.64 -0.37, 154.46 -1.81, 198.31 -0.99 M196.24 1.62 C197.97 28.86, 197.06 60.24, 198.88 97.28 M198.54 0.23 C198.2 23.96, 199.3 48.65, 198.5 95.17 M197.15 95.83 C139.35 96.69, 84.27 97.1, 1.57 96.83 M198.64 96.19 C137.54 96.11, 76.45 96.01, 0.54 95.26 M-0.74 95.13 C-1.65 74.36, -2.68 50.8, -0.55 -1.51 M0.59 96.11 C-0.57 65.13, -0.44 34.25, 0.79 0.67" stroke="#000000" stroke-width="1" fill="none"></path></g><g transform="translate(260.5 311) rotate(0 94 12)"><text x="94" y="17" font-family="Virgil, Segoe UI Emoji" font-size="20px" fill="#000000" text-anchor="middle" style="white-space: pre;" direction="ltr">Backend Team</text></g><g stroke-linecap="round" transform="translate(506.5 273) rotate(0 99 48)"><path d="M0.88 0.88 C78.76 -0.97, 158.62 -3.86, 197.69 1.98 M0.44 0.29 C48.59 -0.87, 96.02 -1.62, 197.26 -0.22 M197.27 0.28 C196.1 28.92, 198.94 55.9, 196.16 96.23 M197.97 0.84 C198.12 36.18, 197.53 72.8, 198.17 95.96 M196.59 94.73 C124.12 96.08, 50.91 96.01, -1.58 95.73 M198.01 95.66 C137.48 94.15, 76.54 93.23, -0.34 95.08 M1.95 96.23 C-0.43 64.1, 2.29 31.94, 0.79 1.17 M-0.07 96.86 C-1.23 75.68, 0.18 54.96, -0.18 0.61" stroke="#000000" stroke-width="1" fill="none"></path></g><g transform="translate(511.5 308.5) rotate(0 94 12)"><text x="94" y="17" font-family="Virgil, Segoe UI Emoji" font-size="20px" fill="#000000" text-anchor="middle" style="white-space: pre;" direction="ltr">Frontend Team</text></g><g stroke-linecap="round" transform="translate(748.5 274) rotate(0 99 48)"><path d="M1.69 -1.17 C40.89 2.11, 84.97 -0.79, 197.53 0.07 M-0.68 0.87 C50.65 -1.4, 99.64 -1.71, 197.17 -0.39 M197.73 -0.04 C196.83 27.73, 199.15 54.34, 199.05 96.35 M198.7 0.39 C197.86 38.52, 198.61 75.52, 197.85 95.55 M199.03 94.79 C133.65 97, 71.97 97.84, 0.95 95.57 M197.71 95.91 C128.4 95.45, 58.2 95.42, 0.5 95.2 M1.63 94.1 C0.17 70.76, -1.32 46.65, -0.52 0.44 M-0.45 96.28 C-0.9 62.98, 0.2 31.56, -0.09 0.73" stroke="#000000" stroke-width="1" fill="none"></path></g><g transform="translate(753.5 298) rotate(0 94 24)"><text x="94" y="17" font-family="Virgil, Segoe UI Emoji" font-size="20px" fill="#000000" text-anchor="middle" style="white-space: pre;" direction="ltr">Tech Support </text><text x="94" y="41" font-family="Virgil, Segoe UI Emoji" font-size="20px" fill="#000000" text-anchor="middle" style="white-space: pre;" direction="ltr">Team</text></g><g stroke-linecap="round"><g transform="translate(217.73909253133377 255.58426665297702) rotate(0 54.53789204297635 -46.258419225983744)"><path d="M-0.79 -0.02 C17.21 -15.25, 89.32 -75.55, 107.73 -90.68 M0.99 -1.07 C19.38 -16.73, 91.82 -77.2, 109.87 -92.5" stroke="#000000" stroke-width="1" fill="none"></path></g><g transform="translate(217.73909253133377 255.58426665297702) rotate(0 54.53789204297635 -46.258419225983744)"><path d="M94.86 -68.32 C99.79 -72.16, 103.71 -82.07, 108 -93.56 M95.86 -66.64 C97.4 -71.11, 101.82 -77.7, 110.39 -91.99" stroke="#000000" stroke-width="1" fill="none"></path></g><g transform="translate(217.73909253133377 255.58426665297702) rotate(0 54.53789204297635 -46.258419225983744)"><path d="M81.66 -84.02 C90.3 -83.48, 97.83 -89.09, 108 -93.56 M82.65 -82.35 C86.77 -83.6, 93.92 -86.96, 110.39 -91.99" stroke="#000000" stroke-width="1" fill="none"></path></g></g><g stroke-linecap="round"><g transform="translate(383.5 263) rotate(0 16.524397988617352 -51.690676157684095)"><path d="M-0.58 0.26 C4.83 -16.91, 27.69 -84.92, 33.63 -102.03 M1.31 -0.65 C6.43 -18.22, 26.9 -86.34, 32.49 -103.64" stroke="#000000" stroke-width="1" fill="none"></path></g><g transform="translate(383.5 263) rotate(0 16.524397988617352 -51.690676157684095)"><path d="M34.37 -74.29 C34.75 -83.79, 33.54 -95.6, 30.88 -103.14 M33.49 -73.73 C33.69 -85.18, 32.67 -96.35, 31.61 -102.69" stroke="#000000" stroke-width="1" fill="none"></path></g><g transform="translate(383.5 263) rotate(0 16.524397988617352 -51.690676157684095)"><path d="M14.77 -80.37 C22.99 -87.36, 29.59 -96.74, 30.88 -103.14 M13.89 -79.81 C21.32 -89.12, 27.54 -98.05, 31.61 -102.69" stroke="#000000" stroke-width="1" fill="none"></path></g></g><g stroke-linecap="round"><g transform="translate(596.5 263) rotate(0 -28.359702543914295 -49.86637271133253)"><path d="M0.41 -1.08 C-9.08 -17.47, -47.69 -82.26, -57.13 -98.72 M-0.84 0.96 C-9.96 -15.77, -45.63 -84.04, -55.01 -100.69" stroke="#000000" stroke-width="1" fill="none"></path></g><g transform="translate(596.5 263) rotate(0 -28.359702543914295 -49.86637271133253)"><path d="M-34.39 -82.64 C-38.43 -86.73, -46.65 -93.35, -54.85 -101.82 M-32 -80.88 C-38.7 -85.4, -44.72 -91.42, -55.68 -100.85" stroke="#000000" stroke-width="1" fill="none"></path></g><g transform="translate(596.5 263) rotate(0 -28.359702543914295 -49.86637271133253)"><path d="M-52.45 -72.89 C-51.31 -79.82, -54.4 -89.21, -54.85 -101.82 M-50.05 -71.13 C-51.87 -78.32, -53.11 -86.92, -55.68 -100.85" stroke="#000000" stroke-width="1" fill="none"></path></g></g><g stroke-linecap="round"><g transform="translate(840.5 262) rotate(0 -102.36276474202987 -56.737884049117554)"><path d="M-0.33 0.4 C-34.45 -18.55, -171.22 -95.04, -205.32 -113.88 M1.71 -0.44 C-32.55 -19.25, -171.88 -93.75, -206.43 -112.8" stroke="#000000" stroke-width="1" fill="none"></path></g><g transform="translate(840.5 262) rotate(0 -102.36276474202987 -56.737884049117554)"><path d="M-176.09 -108.91 C-185.64 -109.38, -190.92 -109.91, -204.89 -114.71 M-175.79 -107.98 C-183.63 -109.72, -191.02 -109.98, -206.75 -112.73" stroke="#000000" stroke-width="1" fill="none"></path></g><g transform="translate(840.5 262) rotate(0 -102.36276474202987 -56.737884049117554)"><path d="M-185.87 -90.87 C-192.94 -95.83, -195.78 -100.88, -204.89 -114.71 M-185.57 -89.94 C-190.87 -96.03, -195.86 -100.74, -206.75 -112.73" stroke="#000000" stroke-width="1" fill="none"></path></g></g><g stroke-linecap="round" transform="translate(200.5 449) rotate(0 67.5 32.72727272727272)"><path d="M-1.96 1.92 C33.24 0.88, 67.15 1.59, 134.8 -1.29 M-0.24 0.93 C52.18 -1.78, 103.24 -1.55, 135.15 -0.86 M135.82 -0.68 C136.02 23.42, 136.41 50.62, 136.11 65.88 M135.61 -0.64 C134.39 24.35, 135.04 46.93, 135.96 65.48 M134.73 66.55 C83.11 65.47, 29.08 63.22, 0.82 64.37 M135.19 64.65 C95.83 66.82, 56.48 66.84, 0.79 65.4 M0.71 64.45 C0.27 48.26, -0.17 33.97, 0.33 0.4 M-0.12 65.68 C0 49.95, 1.13 34.52, 0.61 -0.84" stroke="#000000" stroke-width="1" fill="none"></path></g><g transform="translate(205.5 457.72727272727275) rotate(0 62.5 24)"><text x="62.5" y="17" font-family="Virgil, Segoe UI Emoji" font-size="20px" fill="#000000" text-anchor="middle" style="white-space: pre;" direction="ltr">Feature 1 </text><text x="62.5" y="41" font-family="Virgil, Segoe UI Emoji" font-size="20px" fill="#000000" text-anchor="middle" style="white-space: pre;" direction="ltr">Team</text></g><g stroke-linecap="round" transform="translate(385 455.27272727272725) rotate(0 67.5 32.72727272727272)"><path d="M0.03 0.76 C47.38 -0.57, 94.5 0.09, 134.73 -0.42 M-0.4 -0.86 C48.85 1.05, 99.87 2.05, 134.94 0.45 M133.91 -0.3 C133.73 15.67, 133.4 32.76, 136.13 63.87 M134.85 0.1 C136.41 24.68, 134.64 48.37, 135.92 65.55 M134 66.69 C98.92 65.87, 60.17 66.81, -0.53 65.66 M134.05 64.86 C97.56 65, 62.7 65.54, -0.51 65.04 M0.58 67.1 C-1.17 47.43, -1.17 28.04, 0.72 -0.29 M-0.11 64.96 C-0.87 39.93, 0.23 14.37, -0.78 -0.53" stroke="#000000" stroke-width="1" fill="none"></path></g><g transform="translate(390 463.5) rotate(0 62.5 24)"><text x="62.5" y="17" font-family="Virgil, Segoe UI Emoji" font-size="20px" fill="#000000" text-anchor="middle" style="white-space: pre;" direction="ltr">Feature 2 </text><text x="62.5" y="41" font-family="Virgil, Segoe UI Emoji" font-size="20px" fill="#000000" text-anchor="middle" style="white-space: pre;" direction="ltr">Team</text></g><g stroke-linecap="round"><g transform="translate(295.5 443) rotate(0 8.17837233389264 -32.899070669286886)"><path d="M-0.38 -0.44 C2.05 -11.19, 11.78 -53.18, 14.36 -63.84 M1.62 -1.71 C4.47 -12.83, 14.61 -54.57, 16.73 -65.36" stroke="#000000" stroke-width="1" fill="none"></path></g><g transform="translate(295.5 443) rotate(0 8.17837233389264 -32.899070669286886)"><path d="M19.88 -36.68 C21.27 -43.84, 19.23 -51.97, 18.64 -65.08 M20.67 -35.42 C19.2 -44.22, 18.46 -53.86, 16.69 -64.8" stroke="#000000" stroke-width="1" fill="none"></path></g><g transform="translate(295.5 443) rotate(0 8.17837233389264 -32.899070669286886)"><path d="M-0.15 -41.15 C6.91 -46.99, 10.51 -53.86, 18.64 -65.08 M0.64 -39.89 C5.24 -47.43, 10.58 -55.71, 16.69 -64.8" stroke="#000000" stroke-width="1" fill="none"></path></g></g><g stroke-linecap="round"><g transform="translate(443.5 445) rotate(0 -13.494068526378783 -31.430255946540285)"><path d="M-0.12 -0.87 C-4.61 -11.52, -21.54 -53.52, -25.95 -64.15 M-1.65 1.29 C-6.38 -9.14, -22.54 -51.86, -26.87 -62.7" stroke="#000000" stroke-width="1" fill="none"></path></g><g transform="translate(443.5 445) rotate(0 -13.494068526378783 -31.430255946540285)"><path d="M-8.53 -40.05 C-14.89 -49.76, -23.37 -57.77, -28.63 -63.38 M-7.97 -39.25 C-11.69 -46.39, -16.47 -51.73, -26.65 -63.01" stroke="#000000" stroke-width="1" fill="none"></path></g><g transform="translate(443.5 445) rotate(0 -13.494068526378783 -31.430255946540285)"><path d="M-27.66 -32.61 C-26.66 -45.16, -27.79 -56.02, -28.63 -63.38 M-27.1 -31.82 C-26 -41.01, -25.93 -48.23, -26.65 -63.01" stroke="#000000" stroke-width="1" fill="none"></path></g></g></svg>